<svg width="15" height="15" viewBox="0 0 15 15" fill="none" xmlns="http://www.w3.org/2000/svg">
<path d="M8 4.12646C9.96875 4.12646 11.5938 5.75146 11.5938 7.72021C11.5938 9.72021 9.96875 11.314 8 11.314C6 11.314 4.40625 9.72021 4.40625 7.72021C4.40625 5.75146 6 4.12646 8 4.12646ZM8 10.064C9.28125 10.064 10.3125 9.03271 10.3125 7.72021C10.3125 6.43896 9.28125 5.40771 8 5.40771C6.6875 5.40771 5.65625 6.43896 5.65625 7.72021C5.65625 9.03271 6.71875 10.064 8 10.064ZM12.5625 4.00146C12.5625 4.47021 12.1875 4.84521 11.7188 4.84521C11.25 4.84521 10.875 4.47021 10.875 4.00146C10.875 3.53271 11.25 3.15771 11.7188 3.15771C12.1875 3.15771 12.5625 3.53271 12.5625 4.00146ZM14.9375 4.84521C15 6.00146 15 9.47021 14.9375 10.6265C14.875 11.7515 14.625 12.7202 13.8125 13.564C13 14.3765 12 14.6265 10.875 14.689C9.71875 14.7515 6.25 14.7515 5.09375 14.689C3.96875 14.6265 3 14.3765 2.15625 13.564C1.34375 12.7202 1.09375 11.7515 1.03125 10.6265C0.96875 9.47021 0.96875 6.00146 1.03125 4.84521C1.09375 3.72021 1.34375 2.72021 2.15625 1.90771C3 1.09521 3.96875 0.845215 5.09375 0.782715C6.25 0.720215 9.71875 0.720215 10.875 0.782715C12 0.845215 13 1.09521 13.8125 1.90771C14.625 2.72021 14.875 3.72021 14.9375 4.84521ZM13.4375 11.8452C13.8125 10.939 13.7188 8.75146 13.7188 7.72021C13.7188 6.72021 13.8125 4.53271 13.4375 3.59521C13.1875 3.00146 12.7188 2.50146 12.125 2.28271C11.1875 1.90771 9 2.00146 8 2.00146C6.96875 2.00146 4.78125 1.90771 3.875 2.28271C3.25 2.53271 2.78125 3.00146 2.53125 3.59521C2.15625 4.53271 2.25 6.72021 2.25 7.72021C2.25 8.75146 2.15625 10.939 2.53125 11.8452C2.78125 12.4702 3.25 12.939 3.875 13.189C4.78125 13.564 6.96875 13.4702 8 13.4702C9 13.4702 11.1875 13.564 12.125 13.189C12.7188 12.939 13.2188 12.4702 13.4375 11.8452Z" fill="white"/>
</svg>
