<svg width="15" height="15" viewBox="0 0 15 15" fill="none" xmlns="http://www.w3.org/2000/svg">
<path d="M13.91 0.720215C14.4413 0.720215 14.91 1.18896 14.91 1.75146V13.7202C14.91 14.2827 14.4413 14.7202 13.91 14.7202H1.87878C1.34753 14.7202 0.910034 14.2827 0.910034 13.7202V1.75146C0.910034 1.18896 1.34753 0.720215 1.87878 0.720215H13.91ZM5.12878 12.7202V6.06396H3.06628V12.7202H5.12878ZM4.09753 5.12646C4.75378 5.12646 5.28503 4.59521 5.28503 3.93896C5.28503 3.28271 4.75378 2.72021 4.09753 2.72021C3.41003 2.72021 2.87878 3.28271 2.87878 3.93896C2.87878 4.59521 3.41003 5.12646 4.09753 5.12646ZM12.91 12.7202V9.06396C12.91 7.28271 12.5038 5.87646 10.41 5.87646C9.41003 5.87646 8.72253 6.43896 8.44128 6.97021H8.41003V6.06396H6.44128V12.7202H8.50378V9.43896C8.50378 8.56396 8.66003 7.72021 9.75378 7.72021C10.8163 7.72021 10.8163 8.72021 10.8163 9.47021V12.7202H12.91Z" fill="white"/>
</svg>
